<svg width="24" height="24" viewBox="0 0 24 24" fill="none" xmlns="http://www.w3.org/2000/svg">
<path fill-rule="evenodd" clip-rule="evenodd" d="M12 1.88088C6.41136 1.88088 1.88088 6.41136 1.88088 12C1.88088 17.5886 6.41136 22.1191 12 22.1191C17.5886 22.1191 22.1191 17.5886 22.1191 12C22.1191 6.41136 17.5886 1.88088 12 1.88088ZM0 12C0 5.37258 5.37258 0 12 0C18.6274 0 24 5.37258 24 12C24 18.6274 18.6274 24 12 24C5.37258 24 0 18.6274 0 12Z" fill="#171717"/>
<path d="M14.1066 15.9873C14.0313 15.912 14.0313 15.7616 13.9561 15.6111C13.9561 15.4606 13.8809 15.3102 13.8809 15.1597C13.7304 15.3102 13.5799 15.3854 13.4294 15.5359C13.279 15.6863 13.0533 15.7616 12.9028 15.8368C12.6771 15.912 12.5266 15.9873 12.2257 16.0625C12 16.1377 11.699 16.1377 11.4733 16.1377C11.0219 16.1377 10.6457 16.0625 10.2696 15.912C9.8934 15.7616 9.59246 15.6111 9.29151 15.3854C8.99057 15.1597 8.8401 14.8588 8.68963 14.5578C8.53916 14.2569 8.46393 13.8807 8.46393 13.5045C8.46393 12.6017 8.8401 11.8493 9.51722 11.3979C10.1943 10.8713 11.2476 10.6456 12.6019 10.6456H13.8809V10.1189C13.8809 9.66753 13.7304 9.36659 13.5047 9.14088C13.2037 8.91518 12.8276 8.76471 12.3009 8.76471C11.8495 8.76471 11.5486 8.83994 11.3229 9.06565C11.0972 9.29135 11.0219 9.51706 11.0219 9.818H8.76487C8.76487 9.44182 8.8401 9.06565 8.99057 8.76471C9.14104 8.46377 9.36675 8.16283 9.74292 7.86189C10.0439 7.63618 10.42 7.41048 10.8715 7.26001C11.3229 7.10954 11.8495 7.0343 12.4514 7.0343C12.978 7.0343 13.4294 7.10954 13.8809 7.26001C14.3323 7.41048 14.7084 7.56095 15.0846 7.86189C15.3856 8.08759 15.6865 8.46377 15.837 8.83994C15.9874 9.21612 16.1379 9.66753 16.1379 10.1942V13.9559C16.1379 14.4073 16.1379 14.7835 16.2131 15.0845C16.2884 15.3854 16.3636 15.6863 16.4388 15.8368V15.9873H14.1066ZM11.9247 14.4073C12.1504 14.4073 12.3762 14.4073 12.5266 14.3321C12.7523 14.2569 12.9028 14.1816 13.0533 14.1064C13.2037 14.0312 13.3542 13.9559 13.4294 13.8055C13.5047 13.7302 13.6552 13.5798 13.7304 13.5045V11.9998H12.6019C12.2257 11.9998 11.9247 11.9998 11.699 12.0751C11.4733 12.1503 11.2476 12.2255 11.0972 12.376C10.9467 12.5265 10.7962 12.6017 10.721 12.8274C10.6457 12.9779 10.6457 13.2036 10.6457 13.3541C10.6457 13.655 10.721 13.8807 10.9467 14.1064C11.1724 14.3321 11.5486 14.4073 11.9247 14.4073Z" fill="#171717"/>
</svg>
