<svg width="8" height="5" viewBox="0 0 8 5" fill="none" xmlns="http://www.w3.org/2000/svg">
<path d="M0.153898 3.71081L3.63099 0.63567C3.67945 0.592667 3.73703 0.558547 3.80042 0.535266C3.86382 0.511985 3.93179 0.5 4.00044 0.5C4.06908 0.5 4.13705 0.511985 4.20045 0.535266C4.26384 0.558547 4.32142 0.592667 4.36988 0.63567L7.84697 3.71081C7.94495 3.79747 8 3.915 8 4.03754C8 4.16009 7.94495 4.27762 7.84697 4.36428C7.74899 4.45093 7.6161 4.49962 7.47753 4.49962C7.33896 4.49962 7.20607 4.45093 7.10809 4.36428L4 1.61549L0.891912 4.36466C0.79393 4.45132 0.661038 4.5 0.52247 4.5C0.383903 4.5 0.251011 4.45132 0.153029 4.36466C0.055047 4.27801 0 4.16048 0 4.03793C0 3.91538 0.055047 3.79785 0.153029 3.71119L0.153898 3.71081Z" fill="#221616"/>
</svg>
