<svg width="18" height="14" viewBox="0 0 18 14" fill="none" xmlns="http://www.w3.org/2000/svg">
<path fill-rule="evenodd" clip-rule="evenodd" d="M15.9231 0H2.07692C1.52609 0 0.997816 0.22125 0.608317 0.615076C0.218818 1.0089 0 1.54304 0 2.1V11.9C0 12.4569 0.218818 12.9911 0.608317 13.3849C0.997816 13.7787 1.52609 14 2.07692 14H15.9231C16.4739 14 17.0022 13.7787 17.3917 13.3849C17.7812 12.9911 18 12.4569 18 11.9V2.1C18 1.54304 17.7812 1.0089 17.3917 0.615076C17.0022 0.22125 16.4739 0 15.9231 0ZM16.6154 4.2H1.38462V5.6H5.60856C5.92832 5.59937 6.23844 5.71066 6.48627 5.91498C6.73408 6.1193 6.90432 6.40405 6.96808 6.72087C7.06507 7.19376 7.32025 7.61831 7.69071 7.92316C8.06109 8.22801 8.52411 8.39447 9.00173 8.39447C9.47935 8.39447 9.94237 8.22801 10.3128 7.92316C10.6832 7.61831 10.9384 7.19376 11.0354 6.72087C11.099 6.40464 11.2688 6.12034 11.5158 5.91609C11.7629 5.71184 12.0723 5.60017 12.3915 5.6H16.6154V4.2ZM15.9231 1.4H2.07692C1.89331 1.4 1.71722 1.47375 1.58739 1.60502C1.45756 1.7363 1.38462 1.91435 1.38462 2.1V2.8H16.6154V2.1C16.6154 1.91435 16.5424 1.7363 16.4126 1.60502C16.2828 1.47375 16.1067 1.4 15.9231 1.4ZM2.07692 12.6H15.9231C16.1067 12.6 16.2828 12.5262 16.4126 12.395C16.5424 12.2637 16.6154 12.0856 16.6154 11.9V7H12.3915C12.2321 7.79072 11.8074 8.5015 11.1894 9.01201C10.5713 9.52252 9.79768 9.80133 8.99959 9.80133C8.20149 9.80133 7.42791 9.52252 6.80977 9.01201C6.19166 8.5015 5.76701 7.79072 5.60769 7H1.38462V11.9C1.38462 12.0856 1.45756 12.2637 1.58739 12.395C1.71722 12.5262 1.89331 12.6 2.07692 12.6Z" fill="black"/>
</svg>
